<?xml version="1.0" standalone="no"?>
<!DOCTYPE svg PUBLIC "-//W3C//DTD SVG 20010904//EN"
 "http://www.w3.org/TR/2001/REC-SVG-20010904/DTD/svg10.dtd">
<svg version="1.0" xmlns="http://www.w3.org/2000/svg"
 width="2000.000000pt" height="2000.000000pt" viewBox="0 0 2000.000000 2000.000000"
 preserveAspectRatio="xMidYMid meet">
<metadata>
Created by potrace 1.14, written by Peter Selinger 2001-2017
</metadata>
<g transform="translate(0.000000,2000.000000) scale(0.100000,-0.100000)"
fill="#000000" stroke="none">
<path d="M2787 15398 c-33 -73 -55 -212 -35 -224 5 -3 6 -9 3 -14 -16 -27 76
-241 130 -304 14 -16 25 -32 25 -36 0 -3 30 -37 66 -73 72 -73 160 -144 212
-171 44 -23 40 -28 -8 -11 -126 44 -276 166 -360 292 -73 109 -123 258 -129
383 -1 21 -3 22 -15 10 -34 -34 -147 -280 -129 -280 3 0 1 -6 -4 -12 -11 -15
-10 -187 1 -232 19 -79 110 -202 206 -280 38 -31 191 -130 255 -166 33 -18 67
-39 75 -46 8 -7 17 -12 20 -12 5 1 61 -32 150 -91 80 -53 210 -188 247 -257
53 -99 69 -221 42 -316 -7 -24 -13 -46 -13 -49 -4 -28 -63 -115 -112 -165
-104 -104 -256 -160 -369 -135 -94 21 -184 79 -199 129 -15 45 -14 61 4 77 18
16 20 16 35 1 19 -19 25 -19 58 -7 54 21 32 88 -31 95 -46 5 -94 -29 -110 -79
-11 -34 -11 -46 4 -83 9 -24 32 -60 52 -79 31 -31 32 -35 11 -28 -43 12 -159
96 -204 148 -88 101 -136 229 -129 347 3 50 2 52 -7 20 -17 -62 -20 -84 -21
-145 -2 -83 7 -126 41 -198 33 -70 99 -142 178 -194 29 -20 51 -38 49 -41 -12
-11 -123 54 -171 101 -72 71 -130 190 -137 285 -1 17 -6 32 -11 32 -4 0 -7
-34 -6 -76 10 -397 309 -654 744 -639 215 7 399 84 559 234 102 96 200 267
222 385 2 12 7 41 12 66 10 55 9 213 -2 295 -14 104 -80 261 -141 334 -37 46
-139 146 -185 182 -45 35 -65 48 -335 222 -189 121 -283 200 -363 302 -94 121
-146 282 -153 473 -1 34 -3 62 -4 62 -2 0 -9 -15 -18 -32z m1135 -1688 c7
-227 -103 -440 -302 -587 -199 -147 -476 -203 -683 -138 l-42 13 80 2 c93 2
140 6 175 13 238 50 381 120 524 256 157 151 227 317 221 525 l-3 81 14 -50
c8 -27 15 -79 16 -115z"/>
<path d="M2926 15278 c2 -106 9 -160 26 -191 6 -12 11 -24 10 -27 -1 -3 9 -27
23 -55 59 -121 190 -244 390 -365 59 -36 113 -71 120 -77 8 -7 17 -13 20 -13
17 0 266 -174 323 -226 126 -113 203 -251 228 -409 15 -96 10 -316 -10 -400
-11 -46 -19 -72 -23 -85 -3 -8 -7 -21 -9 -28 -6 -30 -74 -162 -112 -218 -46
-67 -123 -144 -192 -191 -54 -36 -150 -86 -150 -77 0 4 -6 2 -13 -4 -7 -6 -85
-27 -173 -47 -87 -19 -202 -47 -254 -61 -287 -77 -490 -198 -559 -333 -30 -59
-26 -59 19 -2 48 60 103 102 180 138 63 29 209 68 291 77 31 4 66 8 77 11 12
2 63 6 114 10 51 3 109 8 128 10 19 2 69 7 110 10 41 3 91 8 110 10 19 2 58 7
85 10 299 36 518 132 680 299 114 118 191 267 240 466 9 36 19 72 22 80 3 8 7
21 9 28 4 23 62 106 96 139 35 34 111 72 162 81 17 3 60 5 95 5 59 0 62 1 39
13 -68 35 -169 53 -282 50 -160 -5 -248 -33 -336 -106 -48 -39 -89 -64 -96
-58 -2 3 -6 33 -8 69 -3 35 -5 64 -6 64 -1 0 -3 26 -5 59 -18 276 -93 439
-279 604 -65 57 -188 145 -268 191 -18 10 -98 56 -178 101 -308 176 -474 305
-550 428 -38 63 -50 62 -21 -1 12 -25 21 -49 21 -53 0 -24 129 -194 205 -269
114 -114 133 -130 247 -207 51 -35 95 -65 98 -68 3 -3 16 -11 30 -18 69 -34
134 -72 122 -72 -24 0 -217 102 -313 165 -97 65 -242 197 -295 270 -16 22 -31
42 -34 45 -27 24 -112 193 -131 261 -20 71 -25 64 -23 -33z m1470 -2040 c-73
-123 -196 -232 -346 -308 -73 -37 -237 -92 -310 -104 -19 -3 -45 -8 -57 -10
-12 -3 -46 -7 -75 -11 -29 -3 -69 -8 -88 -10 -19 -3 -64 -7 -100 -10 -125 -9
-195 -17 -204 -23 -5 -3 -6 0 -3 6 4 5 31 13 60 17 73 9 248 38 317 51 14 3
39 7 55 10 17 3 55 12 85 20 30 8 64 17 74 19 112 26 350 138 402 190 9 8 18
15 22 15 11 1 115 102 150 148 43 54 50 54 18 0z"/>
<path d="M7627 14644 c-1 -1 -31 -5 -67 -8 -301 -26 -632 -230 -845 -520 -25
-34 -49 -65 -53 -71 -4 -5 -11 -17 -15 -25 -4 -8 -21 -37 -37 -65 -30 -50 -85
-162 -108 -220 l-12 -30 -741 0 c-737 1 -740 1 -743 -20 -5 -24 -37 -312 -42
-370 -2 -22 -5 -49 -7 -60 -3 -11 -8 -47 -11 -80 -4 -33 -9 -67 -11 -75 -2 -8
-7 -42 -10 -75 -5 -52 -13 -113 -30 -215 -2 -14 -6 -47 -10 -75 -3 -27 -7 -57
-9 -65 -3 -8 -7 -37 -11 -65 -3 -27 -8 -57 -10 -65 -2 -8 -7 -37 -10 -65 -9
-64 -10 -76 -24 -155 -6 -36 -13 -83 -16 -105 -3 -22 -11 -65 -16 -95 -6 -30
-12 -66 -14 -80 -2 -14 -7 -41 -10 -60 -3 -19 -15 -87 -26 -150 -20 -117 -34
-191 -44 -245 -3 -16 -10 -57 -16 -90 -18 -97 -19 -107 -34 -180 -8 -38 -17
-83 -20 -100 -3 -16 -7 -41 -10 -55 -3 -14 -7 -36 -10 -50 -3 -14 -12 -59 -20
-100 -8 -41 -17 -85 -19 -96 -3 -12 -14 -64 -25 -115 -11 -52 -23 -110 -26
-129 -3 -19 -10 -51 -15 -70 -5 -19 -12 -51 -15 -70 -3 -19 -10 -51 -15 -70
-8 -31 -128 -553 -135 -590 -2 -8 -4 -15 -5 -15 -1 0 -3 -7 -5 -16 -1 -9 -20
-83 -40 -165 -20 -82 -38 -154 -39 -161 -1 -7 -5 -16 -9 -19 -4 -4 -7 -19 -7
-32 0 -39 -10 -20 -20 39 -5 30 -12 68 -15 84 -3 17 -8 46 -11 65 -9 53 -14
82 -20 110 -2 14 -7 39 -9 55 -2 17 -9 55 -15 85 -6 30 -13 71 -16 90 -2 19
-9 58 -14 85 -10 51 -15 80 -25 150 -3 23 -7 52 -10 65 -3 14 -12 70 -20 125
-24 156 -25 167 -35 225 -5 30 -12 75 -15 100 -3 25 -10 70 -15 100 -5 30 -12
75 -15 100 -6 50 -16 116 -21 142 -1 9 -5 43 -9 75 -3 32 -8 65 -10 73 -2 8
-6 40 -10 70 -3 30 -7 66 -10 80 -2 14 -7 48 -10 75 -3 28 -8 64 -10 80 -3 17
-7 50 -10 75 -2 25 -6 61 -9 80 -3 19 -8 55 -10 80 -3 25 -7 63 -10 85 -6 52
-18 153 -21 185 -2 14 -3 35 -4 47 l-1 21 -697 1 c-384 0 -719 0 -744 0 -45 1
-48 3 -62 40 -239 595 -776 961 -1303 885 -90 -12 -220 -50 -230 -66 -4 -6 -3
-8 2 -5 27 16 182 23 271 12 264 -34 551 -207 756 -455 68 -82 165 -233 220
-345 51 -103 127 -291 127 -315 0 -6 9 -39 20 -73 17 -54 41 -174 57 -284 3
-20 0 -33 -6 -33 -6 0 -11 6 -11 13 0 22 -93 206 -145 287 -69 107 -107 153
-209 255 -104 103 -122 117 -231 189 -215 140 -539 227 -654 175 -104 -46 -95
-168 14 -198 111 -30 220 65 174 152 -7 12 -17 26 -23 30 -17 12 42 1 115 -21
117 -36 274 -117 350 -180 198 -163 325 -323 434 -547 45 -93 106 -251 120
-313 23 -100 45 -212 44 -232 0 -14 -8 11 -18 55 -44 202 -116 353 -213 448
-44 42 -57 48 -36 15 90 -139 156 -314 204 -533 38 -173 47 -291 29 -377 -23
-110 -26 -122 -31 -153 -3 -16 -9 -43 -14 -60 -5 -16 -11 -42 -14 -56 -5 -29
-61 -246 -77 -294 -38 -123 -51 -161 -82 -245 -124 -341 -271 -593 -456 -778
-45 -46 -163 -129 -224 -160 -198 -99 -473 -104 -694 -12 -184 77 -260 185
-211 301 28 65 126 103 193 74 30 -13 30 -14 -18 -29 -23 -7 -41 -49 -33 -79
7 -30 55 -52 91 -43 33 8 56 58 45 95 -5 14 -16 41 -25 58 -70 138 -318 107
-390 -48 l-23 -50 -7 38 c-4 21 -9 49 -12 63 -9 47 -6 215 5 279 6 36 10 66 8
68 -8 9 -89 -118 -130 -202 -56 -115 -78 -197 -81 -304 -8 -303 180 -582 501
-738 44 -22 89 -42 100 -46 210 -65 260 -72 489 -72 213 0 319 11 476 46 26 6
53 12 60 13 53 9 238 72 317 107 146 65 293 147 377 212 6 4 28 21 50 38 139
105 293 251 390 369 20 25 44 54 54 65 9 11 30 38 46 60 16 22 32 42 36 45 11
10 165 246 172 263 3 9 10 17 14 17 7 0 35 -94 60 -195 1 -5 9 -32 17 -60 8
-27 26 -93 41 -145 15 -52 51 -175 80 -274 49 -170 52 -183 49 -280 -7 -267
-105 -506 -294 -719 -61 -69 -178 -170 -245 -212 -45 -28 -13 -30 53 -4 127
50 237 113 337 193 63 50 191 178 230 231 16 22 32 42 35 45 3 3 11 17 19 33
8 15 18 24 21 20 8 -9 29 -68 36 -98 2 -11 29 -94 60 -185 32 -91 57 -181 57
-200 0 -32 -16 -71 -116 -280 -43 -91 -139 -264 -149 -268 -4 -2 -8 -8 -8 -13
0 -8 -87 -146 -100 -159 -3 -3 -25 -30 -50 -60 -101 -123 -267 -260 -315 -260
-8 0 -15 -4 -15 -9 0 -7 -82 -38 -125 -47 -91 -20 -188 -22 -257 -4 -182 46
-323 183 -305 296 14 87 140 145 220 102 20 -10 19 -11 -13 -22 -45 -14 -61
-55 -39 -94 27 -49 116 -37 139 18 24 58 -17 142 -84 174 -42 20 -129 27 -171
14 -16 -5 -35 -10 -40 -11 -30 -6 -89 -54 -117 -94 -28 -42 -31 -53 -30 -115
l1 -70 -33 44 c-114 150 -159 360 -110 521 10 33 -6 17 -29 -30 -54 -107 -71
-189 -71 -328 0 -146 19 -228 84 -352 69 -130 177 -250 297 -326 62 -40 154
-87 169 -87 3 0 20 -6 37 -14 75 -34 202 -53 338 -51 163 2 201 8 352 51 244
70 480 207 669 391 l58 55 67 -5 c38 -3 75 -8 83 -11 8 -2 28 -7 43 -10 21 -5
33 -17 46 -49 22 -50 73 -162 105 -232 16 -34 21 -54 14 -62 -15 -19 -92 -53
-120 -53 -32 0 -91 24 -108 44 -24 30 -31 16 -10 -21 33 -59 122 -106 185 -97
56 8 91 17 102 25 8 7 27 -21 66 -98 71 -140 145 -275 227 -408 44 -72 151
-236 160 -245 3 -3 32 -41 64 -85 32 -44 70 -92 84 -107 18 -20 22 -28 11 -29
-41 -4 -59 -8 -118 -28 -109 -37 -221 -130 -273 -225 -32 -58 -32 -184 0 -241
49 -90 158 -157 257 -158 68 -1 138 41 180 106 22 34 15 34 -34 2 -52 -35
-110 -41 -158 -16 -51 26 -80 55 -98 98 -40 96 11 197 129 253 65 31 92 37
198 46 l66 6 94 -82 c51 -46 125 -104 163 -131 39 -27 75 -52 81 -56 10 -8 18
-12 94 -55 123 -68 344 -142 490 -165 61 -9 262 -9 328 1 106 15 339 100 350
128 2 4 8 8 13 8 14 0 93 61 152 117 211 199 300 512 223 778 -12 42 -55 136
-73 160 l-15 20 7 -20 c19 -53 26 -214 12 -278 -21 -96 -69 -195 -127 -263
l-27 -31 3 64 c4 97 -35 157 -131 203 -86 42 -219 30 -270 -24 -41 -43 -60
-106 -42 -141 43 -89 175 -59 150 34 -5 21 -53 50 -70 44 -7 -3 -13 -2 -13 2
0 13 66 33 100 29 130 -17 181 -123 111 -233 -17 -27 -45 -59 -63 -72 -17 -13
-36 -29 -42 -34 -19 -18 -104 -55 -164 -70 -58 -16 -203 -22 -222 -10 -6 3
-23 8 -38 11 -59 10 -157 55 -237 108 -58 38 -205 179 -253 241 -139 182 -239
347 -356 586 -175 361 -315 737 -493 1323 -3 11 22 -13 56 -52 91 -105 263
-276 366 -362 91 -76 200 -160 209 -160 2 0 -37 43 -88 95 -233 237 -468 589
-608 910 -21 50 -45 103 -53 119 -8 19 -10 35 -4 45 15 26 117 249 149 326 5
11 18 40 28 65 11 25 40 95 64 155 25 61 48 119 53 130 5 11 9 22 10 25 4 13
26 67 34 85 5 11 24 61 41 110 18 50 36 98 42 109 5 10 11 26 13 35 2 9 14 43
26 76 46 127 171 492 184 535 35 123 87 270 96 270 5 0 9 -4 9 -9 0 -13 94
-131 156 -197 67 -69 162 -149 220 -184 21 -13 41 -27 44 -30 5 -6 158 -81
205 -101 11 -4 38 -12 60 -18 32 -8 36 -7 21 2 -165 106 -344 293 -428 447
-28 54 -77 163 -83 188 -3 9 -12 42 -20 72 -9 30 -18 71 -21 90 -3 19 -7 46
-10 60 -9 47 -4 211 6 230 6 11 9 20 6 20 -2 0 3 21 11 48 13 43 97 329 110
377 3 11 26 90 50 175 44 155 51 178 52 193 1 11 21 8 21 -4 0 -19 167 -264
252 -372 145 -180 359 -382 530 -498 203 -138 487 -263 693 -305 54 -11 143
-27 168 -30 15 -2 39 -6 55 -10 45 -10 454 -14 502 -4 25 4 59 10 75 13 267
43 539 216 680 432 78 119 107 213 111 355 5 182 -35 312 -149 482 -31 46 -85
107 -65 73 20 -34 32 -281 17 -362 -15 -78 -18 -82 -39 -38 -23 48 -36 63 -75
91 -69 47 -152 60 -227 35 -45 -15 -93 -68 -107 -118 -15 -53 -14 -66 9 -91
41 -44 123 -15 123 43 0 33 -44 78 -68 69 -26 -10 -16 5 13 19 15 8 44 13 65
11 149 -14 195 -179 79 -289 -27 -26 -124 -86 -139 -87 -4 0 -13 -4 -19 -9 -6
-5 -64 -22 -128 -38 -105 -27 -132 -30 -245 -28 -112 3 -136 7 -220 36 -52 18
-107 41 -122 52 -15 10 -30 19 -34 19 -14 0 -109 73 -164 124 -225 214 -421
590 -557 1071 -30 106 -84 321 -88 350 -2 11 -10 54 -19 95 -23 108 -30 152
-30 175 1 35 13 128 23 180 5 28 12 61 14 75 6 28 10 47 25 110 7 25 13 52 15
61 23 93 114 307 159 372 34 50 11 39 -45 -21 -76 -82 -157 -249 -182 -375 -2
-7 -7 -30 -11 -52 -5 -22 -9 -43 -10 -47 0 -3 -3 -10 -7 -13 -18 -19 38 231
78 346 87 250 209 451 377 621 151 154 277 232 502 314 11 4 29 9 40 10 89 15
90 15 72 4 -45 -28 -55 -104 -19 -143 84 -93 269 -36 248 76 -14 76 -107 117
-221 96 -22 -4 -60 -10 -84 -14 -68 -10 -213 -61 -305 -106 -212 -106 -418
-296 -561 -517 -53 -83 -145 -268 -145 -294 0 -9 -4 -19 -9 -22 -10 -6 -6 29
15 154 19 113 22 128 33 164 6 17 12 42 15 56 22 117 165 431 252 553 19 26
34 51 34 56 0 5 3 11 8 13 4 2 31 33 59 69 162 205 394 365 629 435 96 28 273
40 367 25 83 -14 20 14 -108 48 -58 15 -258 34 -268 25z m-1010 -2006 c-3 -8
-6 -5 -6 6 -1 11 2 17 5 13 3 -3 4 -12 1 -19z m86 -1560 c160 -314 354 -510
622 -626 80 -35 230 -80 289 -88 21 -2 43 -7 48 -10 22 -14 296 -12 375 2 210
36 384 118 494 233 66 69 103 132 149 259 12 34 25 62 27 62 4 0 -1 -48 -12
-115 -33 -189 -199 -379 -425 -487 -59 -28 -203 -74 -260 -83 -19 -3 -48 -8
-63 -11 -103 -21 -366 -4 -482 31 -27 9 -66 20 -85 26 -128 39 -315 160 -423
273 -101 106 -233 321 -275 451 -7 22 -17 49 -22 60 -9 21 -40 145 -40 160 0
19 21 -16 83 -137z m-4497 -1500 c-7 -45 -39 -152 -61 -203 -141 -324 -299
-508 -546 -638 -248 -130 -565 -167 -835 -96 -311 81 -531 260 -606 494 -19
59 -36 175 -26 175 3 0 13 -24 22 -52 70 -222 187 -346 409 -436 250 -101 560
-103 852 -5 71 23 232 97 245 112 3 4 23 18 45 33 164 108 313 292 436 536 33
67 63 122 66 122 3 0 3 -19 -1 -42z"/>
<path d="M2950 14042 c-41 -5 -92 -22 -140 -45 -46 -23 -135 -104 -158 -145
-21 -37 -51 -119 -46 -125 3 -2 19 9 36 25 77 72 220 102 322 68 131 -43 228
-162 230 -280 1 -80 -41 -184 -90 -222 -34 -27 -30 -37 11 -28 99 22 219 115
263 203 66 130 47 294 -47 408 -49 59 -150 118 -231 136 -25 6 -123 9 -150 5z"/>
<path d="M7970 11515 c-126 -35 -210 -88 -280 -177 -138 -174 -131 -413 16
-577 75 -83 184 -145 275 -155 24 -3 37 -3 29 0 -8 3 -34 29 -58 57 -141 171
-105 408 83 537 98 68 243 88 356 50 64 -22 162 -81 180 -110 24 -36 -4 64
-34 123 -56 110 -159 196 -292 242 -62 21 -213 26 -275 10z"/>
<path d="M570 9898 c-41 -15 -87 -36 -102 -48 -15 -11 -29 -20 -32 -20 -11 0
-83 -78 -112 -120 -32 -48 -60 -111 -68 -156 l-5 -27 32 30 c48 46 108 80 172
99 79 22 204 16 266 -14 25 -12 50 -22 56 -22 21 0 131 -117 151 -160 37 -82
45 -120 38 -191 -7 -86 -45 -167 -104 -225 -49 -49 -49 -50 30 -29 94 24 185
83 251 164 32 40 75 116 82 146 1 6 5 21 9 35 25 91 4 231 -50 323 -121 206
-387 299 -614 215z"/>
<path d="M14323 9848 c-14 -16 -13 -18 13 -23 113 -23 109 -3 110 -468 2 -271
-2 -397 -10 -418 -12 -35 -53 -60 -97 -61 -32 -1 -36 -9 -14 -28 19 -16 198
-17 237 -2 15 6 34 23 44 37 l16 25 34 -30 c71 -62 213 -75 311 -29 123 59
192 208 180 389 -16 228 -153 357 -365 342 -75 -6 -66 -55 13 -68 65 -10 91
-30 120 -88 67 -138 48 -421 -34 -500 -66 -63 -194 -37 -238 49 -6 12 -10 163
-10 400 -1 497 4 484 -188 488 -89 2 -109 -1 -122 -15z"/>
<path d="M18752 9862 c-37 -6 -24 -36 17 -39 19 -2 44 -9 56 -17 41 -27 45
-70 42 -461 -2 -356 -3 -371 -22 -390 -102 -101 -225 -81 -270 45 -41 114 -39
321 4 413 34 72 59 92 128 103 44 7 63 20 63 43 0 13 -10 18 -47 20 -25 1 -49
3 -52 4 -14 3 -105 -16 -135 -28 -46 -19 -108 -81 -139 -137 -15 -27 -25 -48
-23 -48 2 0 -2 -19 -9 -43 -18 -59 -17 -198 2 -261 44 -151 142 -234 284 -241
85 -4 132 9 186 52 l42 33 21 -30 c25 -35 61 -44 177 -43 51 0 89 5 98 13 23
19 18 27 -17 28 -18 0 -42 6 -54 12 -46 25 -47 41 -49 472 -2 382 -3 408 -22
440 -10 18 -31 39 -46 46 -25 12 -182 21 -235 14z"/>
<path d="M15527 9584 c-1 -1 -29 -4 -62 -7 -107 -10 -168 -42 -180 -96 -15
-72 -15 -101 1 -101 27 0 78 36 97 69 10 17 32 38 49 47 60 31 162 22 202 -19
37 -36 49 -108 51 -297 3 -182 3 -185 -22 -218 -70 -93 -216 -80 -239 22 -20
87 10 151 91 189 51 25 75 50 75 78 0 19 -132 3 -223 -27 -64 -21 -132 -87
-139 -135 -24 -158 64 -256 235 -263 86 -4 146 12 197 53 l37 30 22 -29 c24
-33 63 -44 161 -43 116 2 117 2 123 23 4 15 0 19 -17 18 -36 -3 -82 21 -97 50
-9 19 -13 84 -15 214 -4 245 -19 307 -96 373 -46 39 -114 62 -196 68 -29 2
-54 2 -55 1z"/>
<path d="M16455 9582 c-60 -11 -96 -25 -129 -47 -33 -23 -39 -24 -53 -10 -31
31 -69 43 -153 44 -61 1 -91 -2 -105 -13 -23 -17 -20 -23 15 -29 53 -8 78 -28
89 -71 5 -22 10 -140 11 -261 0 -121 3 -235 5 -253 5 -36 39 -92 58 -93 7 0
21 -3 32 -5 11 -2 60 -5 109 -5 67 0 93 3 104 15 18 17 13 20 -49 30 -30 5
-40 14 -55 44 -16 32 -18 68 -20 269 -2 262 -4 253 78 277 49 15 101 12 149
-8 33 -14 82 -7 102 13 15 15 -38 78 -75 90 -42 13 -88 18 -113 13z"/>
<path d="M17008 9585 c-1 -1 -27 -6 -56 -9 -148 -17 -278 -142 -300 -286 -7
-44 -7 -147 1 -180 21 -98 88 -192 170 -239 103 -59 263 -63 370 -10 34 17 73
40 86 52 151 141 156 426 8 567 -38 37 -84 63 -97 55 -5 -3 -12 0 -16 6 -5 8
-3 9 6 4 9 -5 11 -4 6 4 -6 9 -11 9 -24 -1 -10 -8 -13 -9 -9 -1 10 17 -6 24
-66 29 -29 3 -57 7 -64 9 -6 2 -13 2 -15 0z m82 -33 c0 -4 -15 -8 -33 -8 -19
-1 -47 -7 -63 -15 -34 -16 -64 -71 -57 -100 7 -26 56 -56 85 -53 32 3 31 3 53
19 19 15 19 15 -3 31 -27 18 -28 45 -4 67 17 16 20 15 49 -16 60 -63 84 -137
88 -267 3 -112 -36 -238 -88 -283 -48 -42 -120 -49 -173 -16 -40 25 -90 121
-100 194 -34 242 62 440 219 453 15 1 27 -2 27 -6z m44 -4 c-3 -4 -11 -5 -19
-1 -21 7 -19 12 4 10 11 0 18 -5 15 -9z"/>
<path d="M17861 9578 c-53 -6 -89 -16 -125 -36 l-51 -29 -19 22 c-22 26 -14
24 -142 31 -87 5 -103 4 -118 -11 -21 -21 -19 -23 26 -29 52 -6 75 -25 87 -71
6 -23 11 -149 12 -281 2 -273 6 -295 67 -321 46 -19 215 -21 237 -3 23 19 18
30 -15 30 -47 0 -78 20 -92 59 -8 24 -12 114 -13 275 l0 238 24 19 c50 40 152
50 201 20 35 -22 45 -32 66 -71 16 -31 19 -64 21 -258 4 -249 10 -279 64 -307
40 -21 220 -25 244 -5 21 17 9 30 -28 30 -79 1 -95 48 -96 291 -1 103 -4 196
-6 208 -3 11 -7 30 -9 40 -25 113 -160 177 -335 159z"/>
<path d="M19478 9578 c-141 -10 -196 -50 -206 -147 -4 -41 -2 -51 11 -51 27 0
71 32 100 72 39 55 103 76 182 58 91 -20 117 -95 120 -345 2 -183 -2 -198 -75
-248 -24 -17 -86 -22 -125 -11 -62 18 -93 143 -51 207 12 18 41 42 66 54 60
30 76 43 85 72 l7 23 -68 -7 c-175 -17 -266 -64 -295 -152 -12 -38 -7 -151 8
-162 5 -3 17 -19 27 -34 39 -62 193 -101 297 -75 48 12 119 53 119 68 0 18 19
10 25 -11 11 -33 70 -51 165 -52 47 0 95 3 108 7 32 11 27 31 -9 34 -86 7 -98
39 -100 273 -1 114 -7 203 -15 234 -39 146 -163 210 -376 193z"/>
<path d="M6735 9152 c-49 -3 -65 -8 -87 -29 -16 -15 -28 -35 -28 -45 0 -15 9
-18 59 -18 73 0 153 -25 187 -59 24 -23 70 -101 61 -101 -3 0 1 -24 8 -52 9
-39 12 -276 13 -913 0 -763 3 -906 16 -965 1 -8 6 -33 11 -55 10 -49 46 -124
72 -147 10 -10 41 -27 68 -39 47 -21 65 -23 290 -24 259 -2 279 1 311 51 9 13
14 28 10 31 -4 4 -33 8 -64 8 -68 2 -147 27 -182 58 -33 29 -58 83 -69 149
-12 70 -11 -27 -15 968 -2 487 -6 895 -9 906 -3 12 -8 39 -11 60 -16 97 -82
173 -173 200 -50 15 -315 24 -468 16z"/>
<path d="M8272 9153 c-4 -1 -19 -4 -34 -7 -30 -7 -76 -63 -62 -76 5 -4 41 -10
79 -12 104 -7 162 -39 198 -109 45 -89 49 -137 51 -546 1 -335 -1 -383 -14
-384 -8 -1 -127 -2 -265 -4 -137 -1 -266 -5 -285 -9 -134 -26 -245 -81 -321
-157 -74 -75 -103 -134 -107 -225 -3 -61 0 -79 23 -127 59 -126 219 -190 374
-150 60 15 148 77 174 122 18 30 18 31 0 37 -10 3 -37 14 -61 26 -122 60 -110
225 24 314 19 13 145 17 419 14 l40 0 1 -423 c0 -453 6 -522 49 -608 14 -26
39 -59 57 -72 62 -46 97 -51 353 -52 216 0 244 2 268 18 26 17 50 56 41 66 -2
3 -27 5 -54 7 -178 7 -230 55 -266 244 -4 19 -8 431 -9 915 -2 911 -4 970 -44
1060 -19 42 -77 100 -117 115 -40 15 -139 23 -326 24 -98 0 -181 0 -186 -1z"/>
<path d="M11391 9149 c-35 -7 -57 -27 -71 -63 -10 -26 -9 -26 48 -27 106 -2
125 -8 189 -55 39 -29 69 -105 78 -196 4 -37 8 -444 10 -905 4 -867 5 -883 29
-1009 16 -80 71 -144 148 -170 77 -26 508 -30 551 -5 63 36 60 80 -5 77 -57
-3 -131 17 -178 48 -38 25 -72 83 -86 146 -4 19 -8 395 -10 835 -3 983 -4
1020 -16 1084 -23 129 -83 203 -188 231 -47 13 -446 20 -499 9z"/>
<path d="M12473 8993 c-31 -16 -52 -42 -53 -63 0 -12 12 -16 55 -17 81 -1 139
-21 180 -60 59 -57 80 -135 84 -299 l2 -111 -123 1 c-137 0 -138 0 -107 -64
18 -37 57 -71 93 -82 11 -3 47 -6 79 -7 l57 -1 1 -577 c1 -318 3 -591 4 -608
22 -223 138 -362 354 -426 48 -14 254 -18 331 -6 131 20 261 75 290 122 21 34
26 80 11 104 -7 11 -18 9 -57 -12 -86 -45 -176 -66 -260 -62 -92 4 -141 33
-176 100 -45 87 -47 117 -48 758 l0 607 226 0 227 0 -6 46 c-5 50 -33 88 -76
101 -14 5 -104 8 -198 8 l-173 -1 -1 110 c-2 116 -2 123 -13 204 -16 122 -84
209 -181 232 -85 19 -486 22 -522 3z"/>
<path d="M10167 8484 c-1 -1 -33 -5 -72 -8 -38 -4 -85 -11 -105 -16 -19 -5
-46 -11 -60 -14 -53 -10 -122 -35 -165 -60 -95 -56 -138 -159 -140 -331 l0
-60 40 3 c83 6 161 65 229 172 44 69 113 117 196 137 50 12 53 12 130 15 195
5 319 -86 365 -270 34 -134 38 -207 38 -627 l1 -351 -26 -38 c-44 -64 -112
-130 -160 -154 -130 -64 -300 -43 -383 49 -61 68 -80 131 -79 256 2 145 67
242 206 307 31 14 62 26 69 26 11 0 69 39 96 66 16 15 43 82 43 105 0 11 -6
19 -12 20 -19 1 -89 -2 -123 -7 -16 -2 -57 -6 -90 -9 -283 -29 -500 -126 -592
-265 -54 -83 -67 -133 -67 -260 1 -127 19 -194 76 -277 60 -88 201 -178 323
-205 93 -20 116 -23 230 -22 194 0 354 55 460 159 l55 54 24 -47 c29 -57 48
-75 107 -101 66 -30 102 -34 319 -35 202 -2 240 2 265 28 18 18 37 66 27 67
-4 0 -32 2 -62 4 -119 6 -182 40 -217 117 -42 90 -46 138 -48 523 -2 204 -5
397 -9 430 -16 156 -78 319 -155 407 -88 100 -255 178 -434 204 -38 6 -295 12
-300 8z"/>
<path d="M14658 8485 c-2 -2 -28 -6 -58 -9 -88 -10 -158 -33 -259 -84 -78 -38
-110 -63 -180 -133 -47 -47 -91 -92 -96 -100 -39 -52 -110 -199 -120 -249 -2
-8 -8 -35 -14 -60 -20 -80 -26 -142 -26 -275 0 -198 22 -301 94 -450 49 -101
84 -153 152 -222 162 -166 383 -246 654 -238 145 4 245 25 345 73 126 59 221
138 309 255 41 54 43 59 26 71 -15 11 -47 13 -113 7 -6 -1 -39 -26 -72 -57
-148 -141 -277 -193 -462 -189 -181 5 -307 84 -382 240 -72 149 -86 242 -82
565 2 135 6 256 10 270 3 14 9 41 12 60 9 54 43 151 69 196 31 54 106 121 161
146 109 48 253 16 336 -74 32 -34 76 -111 83 -143 1 -5 7 -28 13 -50 6 -22 13
-57 16 -77 3 -21 8 -53 11 -71 3 -18 7 -74 9 -124 l3 -91 -187 0 c-177 -1
-190 -2 -222 -23 -45 -30 -76 -70 -83 -108 l-5 -31 425 0 c472 0 475 0 514 63
41 67 34 278 -14 422 -20 57 -66 146 -101 191 -105 139 -295 251 -474 279 -19
3 -48 8 -65 12 -29 6 -222 13 -227 8z"/>
<path d="M16887 8484 c-1 -1 -27 -5 -57 -8 -79 -9 -176 -35 -240 -63 -56 -25
-150 -81 -161 -96 -3 -4 -14 4 -24 20 -24 36 -41 50 -90 73 -65 30 -90 33
-318 37 l-217 4 -30 -30 c-17 -16 -30 -38 -30 -49 0 -16 8 -19 53 -21 127 -4
193 -39 231 -123 35 -79 39 -136 41 -698 2 -491 5 -562 20 -615 34 -117 67
-154 166 -191 59 -22 477 -29 526 -9 33 14 71 60 59 72 -4 4 -28 8 -54 9 -99
3 -140 16 -190 59 -26 22 -60 82 -65 114 -2 11 -6 23 -9 27 -4 3 -7 270 -8
593 -1 666 -11 593 91 650 80 45 142 62 240 66 203 10 341 -86 400 -274 28
-93 30 -123 31 -627 1 -520 4 -538 81 -618 66 -69 114 -79 387 -81 247 -2 267
2 295 55 12 23 13 30 3 31 -7 0 -35 2 -63 4 -149 9 -210 62 -247 214 -7 30
-12 199 -13 476 -3 424 -4 458 -26 552 -6 27 -12 56 -14 66 -6 29 -64 131 -96
171 -79 95 -257 181 -419 202 -51 6 -247 13 -253 8z"/>
<path d="M18977 8484 c-1 -1 -36 -4 -77 -8 -63 -5 -156 -22 -220 -40 -105 -29
-221 -98 -288 -170 -136 -148 -159 -410 -50 -573 30 -44 117 -96 198 -116 55
-14 190 -17 278 -5 16 2 16 0 -17 50 -28 43 -60 125 -67 176 -5 42 -5 194 1
222 3 14 8 39 11 55 9 51 50 130 89 174 131 145 404 120 515 -48 99 -149 96
-464 -6 -598 -60 -79 -145 -109 -334 -117 -69 -3 -141 -7 -160 -10 -19 -3 -56
-8 -82 -11 -115 -13 -231 -79 -268 -152 -49 -99 3 -233 111 -286 l31 -15 -53
-17 c-80 -26 -156 -63 -232 -113 -155 -102 -220 -252 -192 -446 19 -129 95
-259 183 -310 42 -24 107 -60 112 -61 3 -1 17 -7 33 -13 49 -22 82 -34 97 -37
8 -2 44 -10 80 -19 36 -9 99 -21 140 -27 91 -13 377 -19 457 -8 32 4 78 9 103
12 65 8 176 34 240 58 186 69 288 149 342 267 37 80 42 109 42 227 1 146 -55
269 -167 372 -136 124 -414 208 -722 218 -164 6 -273 15 -301 25 -13 5 -24 7
-24 5 0 -11 -74 27 -92 47 -35 40 0 99 73 123 69 23 96 26 419 40 113 5 161
10 210 22 14 3 32 7 40 8 79 10 233 78 284 126 17 16 34 29 37 29 12 0 69 89
88 137 23 60 31 97 37 187 12 178 -67 328 -226 428 -30 19 -64 38 -74 42 -10
3 -17 8 -15 10 4 4 65 13 149 23 85 9 137 43 142 94 l3 24 -438 0 c-241 1
-439 0 -440 -1z m63 -1528 c19 -2 58 -7 85 -10 47 -6 86 -14 145 -32 47 -14
137 -73 175 -115 54 -60 85 -134 93 -226 8 -82 -9 -204 -32 -233 -7 -8 -18
-28 -26 -44 -20 -39 -103 -112 -154 -135 -67 -29 -142 -43 -240 -45 -302 -6
-477 149 -471 416 5 193 83 330 235 409 56 29 70 30 190 15z"/>
<path d="M2360 7573 c-126 -26 -250 -108 -314 -207 -51 -80 -97 -223 -53 -166
20 25 90 76 122 87 17 6 39 14 50 19 36 13 49 15 110 18 161 7 312 -79 381
-220 26 -53 29 -69 28 -154 0 -82 -4 -102 -27 -150 -15 -31 -45 -74 -67 -95
-22 -22 -39 -43 -40 -46 -1 -19 138 32 202 72 138 89 218 239 213 400 -9 293
-298 504 -605 442z"/>
<path d="M6308 5985 c-2 -2 -16 -5 -33 -8 -140 -22 -270 -110 -344 -231 -41
-69 -61 -143 -60 -231 0 -124 44 -229 134 -318 48 -49 156 -115 199 -123 14
-2 36 -8 50 -14 35 -13 38 -2 7 28 -79 78 -115 163 -115 272 1 141 84 264 220
327 75 34 97 38 195 36 73 -1 97 -6 152 -31 36 -17 84 -47 106 -67 47 -42 48
-39 22 37 -54 157 -204 284 -371 314 -40 7 -157 13 -162 9z"/>
</g>
</svg>
