<svg width="140" height="248" viewBox="0 0 140 248" fill="none" xmlns="http://www.w3.org/2000/svg">
<path d="M34.2997 220.066L34.3092 220.137L34.3382 220.203C36.4228 224.908 40.8276 231.859 47.301 237.509C53.7741 243.159 62.3466 247.534 72.75 247.014C83.1534 247.534 91.7259 243.159 98.199 237.509C104.672 231.859 109.077 224.908 111.162 220.203L111.191 220.137L111.2 220.066L137.496 23.0663L137.539 22.7374L137.254 22.5692C112.362 7.92031 92.8022 0.802846 73.0893 0.927889C53.3809 1.0529 33.5958 8.4171 8.25626 22.5635L7.9594 22.7293L8.00438 23.0663L34.2997 220.066Z" fill="white" stroke="black"/>
<path d="M87.5 206.5C81.5 203.3 74.6667 206.167 72 208C64.4 204.4 58.1667 206.5 56 208C52 209.2 46.6667 208.833 44.5 208.5C67.3 236.9 91 220 100 208C94.4 208.4 89.3333 207.167 87.5 206.5Z" fill="#DA0D0D"/>
<path d="M72 83.5001V225" stroke="black" stroke-width="3"/>
<path d="M107.5 67.5001C86.7 72.3001 75.5 94.1668 72.5 104.5C89.7 104.5 105.667 97.5001 111.5 94.0001C123.1 85.6001 125.667 62.5001 125.5 52.0001C120.3 63.6001 111.333 67.1668 107.5 67.5001Z" fill="black"/>
<path d="M34.0074 67.5001C54.8074 72.3001 66.0074 94.1668 69.0074 104.5C51.8074 104.5 35.8408 97.5001 30.0074 94.0001C18.4074 85.6001 15.8408 62.5001 16.0074 52.0001C21.2074 63.6001 30.1741 67.1668 34.0074 67.5001Z" fill="black"/>
<path d="M99.5 196.5L114.5 138L107 182L110.5 180.5L118 144L112.5 186C104.9 190 100.667 194.667 99.5 196.5Z" fill="black"/>
<path d="M45.5 196.5L30.5 138L38 182L34.5 180.5L27 144L32.5 186C40.1 190 44.3333 194.667 45.5 196.5Z" fill="black"/>
<path d="M94 198L74 194V200L94 198Z" fill="black"/>
<path d="M50 198L70 194V200L50 198Z" fill="black"/>
<path fill-rule="evenodd" clip-rule="evenodd" d="M115 102.5C91.4 102.5 78.5 130.833 75 145C80.2 142.2 87.5 141.167 90.5 141C98.9 141.4 104.667 137.5 106.5 135.5C110.5 124.3 119.167 113.167 123 109C121 104.6 116.833 102.833 115 102.5ZM93.9119 119.079C100.822 112.83 109.983 110.113 115.5 109.5C111.575 118.606 106.957 124.723 102.432 128.735C103.409 127.597 104 126.118 104 124.5C104 120.91 101.09 118 97.5 118C96.1737 118 94.9402 118.397 93.9119 119.079ZM92.1546 120.801C92.6255 120.122 93.2226 119.536 93.9119 119.079C93.3076 119.626 92.7205 120.199 92.1546 120.801ZM92.1546 120.801C91.4266 121.851 91 123.126 91 124.5C91 128.09 93.9101 131 97.5 131C98.6921 131 99.8093 130.679 100.77 130.119C94.3706 135.117 88.3558 136.059 85 135.5C85.9336 129.365 88.6347 124.542 92.1546 120.801ZM100.77 130.119C101.321 129.688 101.876 129.227 102.432 128.735C101.96 129.283 101.398 129.752 100.77 130.119Z" fill="black"/>
<path fill-rule="evenodd" clip-rule="evenodd" d="M29 102.5C52.6 102.5 65.5 130.833 69 145C63.8 142.2 56.5 141.167 53.5 141C45.1 141.4 39.3333 137.5 37.5 135.5C33.5 124.3 24.8333 113.167 21 109C23 104.6 27.1667 102.833 29 102.5ZM50.0881 119.079C43.1781 112.83 34.0167 110.113 28.5 109.5C32.4249 118.606 37.0431 124.723 41.5684 128.735C40.5908 127.597 40 126.118 40 124.5C40 120.91 42.9101 118 46.5 118C47.8263 118 49.0598 118.397 50.0881 119.079ZM51.8454 120.801C51.3745 120.122 50.7774 119.536 50.0881 119.079C50.6924 119.626 51.2795 120.199 51.8454 120.801ZM51.8454 120.801C52.5734 121.851 53 123.126 53 124.5C53 128.09 50.0899 131 46.5 131C45.3079 131 44.1907 130.679 43.2302 130.119C49.6294 135.117 55.6442 136.059 59 135.5C58.0664 129.365 55.3653 124.542 51.8454 120.801ZM43.2302 130.119C42.6786 129.688 42.1242 129.227 41.5684 128.735C42.04 129.283 42.6015 129.752 43.2302 130.119Z" fill="black"/>
<circle cx="86.5" cy="162.5" r="4.5" fill="black"/>
<circle cx="80.5" cy="213.5" r="1.5" fill="white"/>
<circle cx="1.5" cy="1.5" r="1.5" transform="matrix(-1 0 0 1 66 212)" fill="white"/>
<circle cx="90.5" cy="212.5" r="1.5" fill="white"/>
<circle cx="1.5" cy="1.5" r="1.5" transform="matrix(-1 0 0 1 56 211)" fill="white"/>
<circle cx="85.5" cy="213.5" r="1.5" fill="white"/>
<circle cx="1.5" cy="1.5" r="1.5" transform="matrix(-1 0 0 1 61 212)" fill="white"/>
<circle cx="55.5" cy="162.5" r="4.5" fill="black"/>
<path d="M25.148 58.114C21.488 60.5953 18.2361 63.4117 14.9281 66.3388C14.7113 66.5306 10.8229 69.2118 11.0193 69.8404C11.3223 70.81 25.0827 62.9966 25.8402 59.9666C26.3121 58.0789 24.5615 60.1541 24.1708 60.557C21.6538 63.1526 18.9303 65.7327 15.9664 67.8249C14.7737 68.6668 16.829 65.0193 17.0046 63.57C17.0372 63.3017 16.851 62.4526 16.8011 63.3257C16.6953 65.1763 17.2796 67.0657 18.104 68.7003C19.483 71.4345 22.3833 71.8975 19.1626 69.3925C17.4869 68.0892 11.5842 65.7596 13.6659 66.1759C15.5446 66.5516 17.4364 68.2049 19.0201 69.2296C20.1734 69.9759 19.1396 67.7555 19.0405 67.5195C18.187 65.4874 17.428 63.3376 16.0682 61.5749C15.7384 61.1475 15.0003 60.8169 15.946 61.3713C18.1817 62.6819 20.9937 63.6443 23.4583 64.4658C25.4481 65.1291 23.7783 64.7285 22.42 64.6897C18.8288 64.5871 15.2784 64.0783 11.8336 63.0407C11.0756 62.8124 3.91959 60.7509 5.07464 58.684C6.062 56.9172 10.5062 57.3088 12.1186 57.5439C15.1098 57.9801 17.6839 60.1728 18.8369 62.9593C19.5784 64.7513 19.7718 66.1987 17.4932 66.1759C14.1791 66.1427 10.1394 63.2216 12.1186 59.3762C13.1614 57.3502 16.0563 58.366 17.5747 59.1726C20.144 60.5375 22.1234 63.2213 22.8679 66.013C23.6028 68.7689 20.0652 68.3248 18.3483 67.4788C14.6238 65.6435 20.8709 61.4245 22.9086 64.0179C24.6631 66.2509 24.5233 68.471 21.5446 69.0668C20.1438 69.3469 19.9686 69.5421 20.038 68.0489C20.1619 65.3864 21.006 62.0655 23.8043 61.0456C25.9441 60.2657 28.8667 59.9232 30.8483 61.2899C31.2588 61.573 33.6997 64.2341 32.8842 64.9137C32.4267 65.2949 30.6888 65.0765 30.2783 65.0765C28.3782 65.0765 26.4781 65.0765 24.578 65.0765C23.2841 65.0765 18.036 65.9344 16.9639 65.0155C16.4513 64.5761 21.3715 63.442 22.3793 64.0179C23.1094 64.4351 22.2848 66.3032 21.9314 66.6848C20.1956 68.5595 15.9762 68.5696 13.6659 68.2932C9.34483 67.7761 7.03759 60.0986 11.7929 58.3786C13.2839 57.8393 15.0973 57.3676 16.6586 57.0553C17.9075 56.8055 17.4525 58.7153 17.4525 59.4576C17.4525 62.568 17.904 66.0696 17.1675 69.1075C16.916 70.1452 17.0861 66.2265 17.0861 65.8909C17.0861 62.6471 17.0861 59.4033 17.0861 56.1596C17.0861 54.9924 17.0861 53.8251 17.0861 52.6579C17.0861 50.7158 19.3203 54.6651 19.4477 55.0195C20.5532 58.0971 21.7098 61.574 20.9135 64.873C20.7598 65.5095 20.2501 68.0807 19.4273 68.3339C18.7614 68.5388 17.902 68.3395 17.2082 68.395C14.9103 68.5788 13.7557 71.1421 12.8515 72.9756C12.4796 73.7298 12.2755 74.4966 12.3222 75.3372C12.3744 76.2772 15.2311 72.1585 15.3963 71.8966C16.074 70.8223 19.1553 67.8787 17.819 66.5423" stroke="#66C938" stroke-width="2" stroke-linecap="round"/>
<path d="M16.3506 61.4622C16.5369 61.4791 17.121 61.7283 16.9351 61.4495C15.9663 59.9963 15.123 58.4774 14.3938 56.8878C14.1109 56.2711 11.0731 50.3214 12.1448 49.607C12.4285 49.4178 13.3112 49.5657 13.606 49.6197C15.2529 49.9212 15.8183 51.6105 16.2236 53.025C16.8603 55.2475 17.0317 57.5231 17.3799 59.7976C17.4314 60.1346 17.7504 64.2752 18.0787 62.2754C18.8536 57.5557 19.1312 52.9656 21.446 48.6667C21.9474 47.7354 22.1826 48.5426 22.2465 49.2131C22.4378 51.2224 22.2973 53.2965 22.2973 55.3122C22.2973 56.1896 21.9123 58.6725 22.399 57.9425C24.0875 55.4096 24.7027 51.811 25.817 48.9843C25.8502 48.9003 27.2769 45.6212 27.4562 46.0364C28.397 48.2151 26.5575 51.9437 25.7281 53.8128C24.2366 57.1739 22.168 60.1832 20.404 63.3936C20.1222 63.9066 19.5906 64.7062 19.5527 65.3504C19.5292 65.749 20.0844 64.7545 20.3405 64.4483C22.1787 62.2504 24.4545 60.8431 26.8971 59.4037C28.1624 58.6581 27.3845 59.8516 26.9987 60.4965C26.5669 61.2186 25.1628 63.3159 25.6518 62.6312C27.4113 60.168 29.5563 57.8345 32.0051 56.0492C34.1371 54.495 37.4687 52.6351 40.2517 52.809C42.625 52.9574 35.8443 59.2395 35.6392 59.4037C32.8219 61.6599 23.23 66.7296 26.5159 65.2361C26.8954 65.0636 25.6875 65.1217 25.2707 65.1217C24.7472 65.1217 22.0077 64.7581 21.6874 65.2742C21.2943 65.9075 24.8385 69.4672 25.2452 70.2297C25.3321 70.3926 26.1445 71.1945 25.8297 71.2844C24.4279 71.6849 23.5139 68.3819 23.4409 67.4089C23.35 66.1963 23.6245 66.539 24.6226 67.5995C25.6997 68.7438 28.6123 71.2615 28.4727 73.076C28.4106 73.8831 27.1905 72.4457 27.1766 72.428C26.0433 70.9784 25.298 69.2784 24.305 67.7393C23.7426 66.8677 23.0971 66.155 22.3227 65.4775C21.4002 64.6703 22.8236 67.0826 22.9453 67.6122C23.1089 68.3235 24.3699 76.2837 23.0851 76.1002C22.2597 75.9823 21.778 73.2825 21.6112 72.7456C20.8823 70.3997 20.3461 67.9721 19.451 65.6808C18.2122 62.5093 17.7721 66.4774 17.2655 67.8282C16.9883 68.5673 16.6698 69.3529 16.2998 70.0519C15.7541 71.0826 15.6382 70.0322 15.817 69.4165C16.0831 68.4998 16.9971 67.7471 17.1766 66.8498C17.2664 66.4004 16.5476 67.5168 16.2236 67.8409C15.0741 68.9904 13.784 69.9934 12.3481 70.7634C9.3348 72.3792 5.71922 72.9065 2.34798 73.2031C-0.289152 73.4351 1.62145 71.0444 2.3988 69.874C4.25346 67.0816 7.27426 63.9629 10.8106 64.2068C11.8148 64.2761 12.686 65.0773 11.7254 65.9349C11.3129 66.3033 10.6559 66.9393 10.099 67.0785C9.59386 67.2048 11.06 66.6768 11.5475 66.494" stroke="#66C938" stroke-width="2" stroke-linecap="round"/>
<path d="M114.607 58.114C118.267 60.5953 121.519 63.4117 124.827 66.3388C125.044 66.5306 128.932 69.2118 128.736 69.8404C128.433 70.81 114.672 62.9966 113.915 59.9666C113.443 58.0789 115.193 60.1541 115.584 60.557C118.101 63.1526 120.825 65.7327 123.789 67.8249C124.981 68.6668 122.926 65.0193 122.75 63.57C122.718 63.3017 122.904 62.4526 122.954 63.3257C123.06 65.1763 122.475 67.0657 121.651 68.7003C120.272 71.4345 117.372 71.8975 120.592 69.3925C122.268 68.0892 128.171 65.7596 126.089 66.1759C124.21 66.5516 122.319 68.2049 120.735 69.2296C119.582 69.9759 120.615 67.7555 120.714 67.5195C121.568 65.4874 122.327 63.3376 123.687 61.5749C124.017 61.1475 124.755 60.8169 123.809 61.3713C121.573 62.6819 118.761 63.6443 116.297 64.4658C114.307 65.1291 115.977 64.7285 117.335 64.6897C120.926 64.5871 124.477 64.0783 127.921 63.0407C128.679 62.8124 135.835 60.7509 134.68 58.684C133.693 56.9172 129.249 57.3088 127.636 57.5439C124.645 57.9801 122.071 60.1728 120.918 62.9593C120.177 64.7513 119.983 66.1987 122.262 66.1759C125.576 66.1427 129.616 63.2216 127.636 59.3762C126.593 57.3502 123.699 58.366 122.18 59.1726C119.611 60.5375 117.632 63.2213 116.887 66.013C116.152 68.7689 119.69 68.3248 121.407 67.4788C125.131 65.6435 118.884 61.4245 116.846 64.0179C115.092 66.2509 115.232 68.471 118.21 69.0668C119.611 69.3469 119.786 69.5421 119.717 68.0489C119.593 65.3864 118.749 62.0655 115.951 61.0456C113.811 60.2657 110.888 59.9232 108.907 61.2899C108.496 61.573 106.055 64.2341 106.871 64.9137C107.328 65.2949 109.066 65.0765 109.477 65.0765C111.377 65.0765 113.277 65.0765 115.177 65.0765C116.471 65.0765 121.719 65.9344 122.791 65.0155C123.304 64.5761 118.383 63.442 117.376 64.0179C116.646 64.4351 117.47 66.3032 117.824 66.6848C119.559 68.5595 123.779 68.5696 126.089 68.2932C130.41 67.7761 132.717 60.0986 127.962 58.3786C126.471 57.8393 124.658 57.3676 123.096 57.0553C121.847 56.8055 122.302 58.7153 122.302 59.4576C122.302 62.568 121.851 66.0696 122.587 69.1075C122.839 70.1452 122.669 66.2265 122.669 65.8909C122.669 62.6471 122.669 59.4033 122.669 56.1596C122.669 54.9924 122.669 53.8251 122.669 52.6579C122.669 50.7158 120.435 54.6651 120.307 55.0195C119.202 58.0971 118.045 61.574 118.841 64.873C118.995 65.5095 119.505 68.0807 120.328 68.3339C120.994 68.5388 121.853 68.3395 122.547 68.395C124.845 68.5788 125.999 71.1421 126.903 72.9756C127.275 73.7298 127.479 74.4966 127.433 75.3372C127.38 76.2772 124.524 72.1585 124.359 71.8966C123.681 70.8223 120.6 67.8787 121.936 66.5423" stroke="#66C938" stroke-width="2" stroke-linecap="round"/>
<path d="M123.404 61.4622C123.218 61.4791 122.634 61.7283 122.82 61.4495C123.789 59.9963 124.632 58.4774 125.361 56.8878C125.644 56.2711 128.682 50.3214 127.61 49.607C127.326 49.4178 126.444 49.5657 126.149 49.6197C124.502 49.9212 123.937 51.6105 123.531 53.025C122.895 55.2475 122.723 57.5231 122.375 59.7976C122.324 60.1346 122.005 64.2752 121.676 62.2754C120.901 57.5557 120.624 52.9656 118.309 48.6667C117.807 47.7354 117.572 48.5426 117.508 49.2131C117.317 51.2224 117.458 53.2965 117.458 55.3122C117.458 56.1896 117.843 58.6725 117.356 57.9425C115.667 55.4096 115.052 51.811 113.938 48.9843C113.905 48.9003 112.478 45.6212 112.299 46.0364C111.358 48.2151 113.197 51.9437 114.027 53.8128C115.518 57.1739 117.587 60.1832 119.351 63.3936C119.633 63.9066 120.164 64.7062 120.202 65.3504C120.226 65.749 119.671 64.7545 119.414 64.4483C117.576 62.2504 115.3 60.8431 112.858 59.4037C111.593 58.6581 112.37 59.8516 112.756 60.4965C113.188 61.2186 114.592 63.3159 114.103 62.6312C112.344 60.168 110.199 57.8345 107.75 56.0492C105.618 54.495 102.286 52.6351 99.5032 52.809C97.13 52.9574 103.911 59.2395 104.116 59.4037C106.933 61.6599 116.525 66.7296 113.239 65.2361C112.86 65.0636 114.067 65.1217 114.484 65.1217C115.008 65.1217 117.747 64.7581 118.068 65.2742C118.461 65.9075 114.916 69.4672 114.51 70.2297C114.423 70.3926 113.61 71.1945 113.925 71.2844C115.327 71.6849 116.241 68.3819 116.314 67.4089C116.405 66.1963 116.13 66.539 115.132 67.5995C114.055 68.7438 111.143 71.2615 111.282 73.076C111.344 73.8831 112.564 72.4457 112.578 72.428C113.712 70.9784 114.457 69.2784 115.45 67.7393C116.012 66.8677 116.658 66.155 117.432 65.4775C118.355 64.6703 116.931 67.0826 116.81 67.6122C116.646 68.3235 115.385 76.2837 116.67 76.1002C117.495 75.9823 117.977 73.2825 118.144 72.7456C118.873 70.3997 119.409 67.9721 120.304 65.6808C121.543 62.5093 121.983 66.4774 122.489 67.8282C122.767 68.5673 123.085 69.3529 123.455 70.0519C124.001 71.0826 124.117 70.0322 123.938 69.4165C123.672 68.4998 122.758 67.7471 122.578 66.8498C122.489 66.4004 123.207 67.5168 123.531 67.8409C124.681 68.9904 125.971 69.9934 127.407 70.7634C130.42 72.3792 134.036 72.9065 137.407 73.2031C140.044 73.4351 138.133 71.0444 137.356 69.874C135.501 67.0816 132.481 63.9629 128.944 64.2068C127.94 64.2761 127.069 65.0773 128.03 65.9349C128.442 66.3033 129.099 66.9393 129.656 67.0785C130.161 67.2048 128.695 66.6768 128.207 66.494" stroke="#66C938" stroke-width="2" stroke-linecap="round"/>
<path d="M71.3194 87.8872C70.9723 92.2953 70.1323 96.5145 69.2237 100.837C69.1642 101.12 68.7563 105.826 68.1129 105.966C67.1203 106.182 67.1077 90.3582 69.3668 88.2016C70.7743 86.858 69.8361 89.4057 69.6791 89.9445C68.6675 93.4157 67.7716 97.0587 67.4186 100.67C67.2765 102.122 69.4307 98.5325 70.6035 97.6632C70.8206 97.5022 71.6508 97.2442 70.9166 97.7193C69.3603 98.7263 67.4291 99.1527 65.6007 99.2443C62.5423 99.3977 60.7058 97.1056 64.4756 98.6664C66.437 99.4785 71.3806 103.457 69.9894 101.854C68.7339 100.407 66.3614 99.5796 64.6876 98.7098C63.4688 98.0763 65.9099 97.877 66.164 97.8465C68.3523 97.5835 70.5963 97.1803 72.8008 97.4906C73.3353 97.5659 73.9876 98.044 73.0381 97.4961C70.7935 96.2009 68.5666 94.2326 66.6339 92.4966C65.0735 91.095 66.2472 92.3483 66.9526 93.5098C68.8175 96.5806 71.0154 99.415 73.6205 101.896C74.1938 102.442 79.5239 107.643 80.7494 105.617C81.7969 103.885 79.259 100.216 78.2574 98.9304C76.3992 96.5462 73.2206 95.393 70.2284 95.7686C68.3042 96.0101 66.9505 96.5577 68.0969 98.527C69.7645 101.391 74.301 103.458 76.6648 99.8364C77.9102 97.9282 75.5958 95.9143 74.1439 94.9933C71.6871 93.435 68.3756 93.0415 65.581 93.7748C62.8222 94.4987 64.9573 97.354 66.5416 98.428C69.9785 100.758 70.5568 93.2417 67.295 92.7529C64.4865 92.332 62.6259 93.5513 63.5809 96.435C64.0301 97.791 63.947 98.0399 65.2106 97.2411C67.4637 95.817 69.9327 93.4412 69.4356 90.5046C69.0555 88.2591 67.908 85.5495 65.7403 84.5028C65.2912 84.286 61.7713 83.4801 61.5838 84.5251C61.4787 85.1112 62.5278 86.5139 62.7308 86.8706C63.6703 88.5222 64.6098 90.1738 65.5494 91.8253C66.1891 92.95 68.0385 97.9358 69.3673 98.4133C70.0027 98.6416 68.5555 93.8042 67.5567 93.213C66.833 92.7847 65.6171 94.4251 65.4601 94.921C64.6889 97.3567 66.7664 101.029 68.1491 102.901C70.7351 106.401 78.5492 104.61 77.6929 99.6263C77.4244 98.0636 76.9378 96.2541 76.4372 94.7427C76.0368 93.5336 74.6018 94.8734 73.9566 95.2404C71.2531 96.7784 67.9863 98.1174 65.7098 100.26C64.9323 100.991 68.2542 98.9059 68.546 98.7399C71.3655 97.136 74.185 95.5321 77.0044 93.9282C78.019 93.351 79.0335 92.7739 80.0481 92.1968C81.7362 91.2364 77.1987 91.2472 76.8277 91.3118C73.606 91.8726 70.012 92.5865 67.5383 94.9099C67.061 95.3581 65.0781 97.0725 65.2649 97.9129C65.4161 98.5931 66.0143 99.2415 66.3091 99.8719C67.2855 101.96 65.6283 104.231 64.4818 105.924C64.0101 106.62 63.4446 107.176 62.6908 107.552C61.848 107.971 64.0154 103.451 64.1613 103.178C64.7601 102.058 65.7951 97.9243 67.6173 98.425" stroke="#C9385C" stroke-width="2" stroke-linecap="round"/>
<path d="M72.759 97.1894C72.6522 97.0358 72.1469 96.6514 72.4811 96.6751C74.2232 96.7986 75.9604 96.7805 77.7027 96.6284C78.3786 96.5694 85.0522 96.2679 85.1433 94.9832C85.1674 94.643 84.6024 93.9489 84.4097 93.7193C83.3333 92.437 81.5853 92.7808 80.1555 93.128C77.9088 93.6735 75.8461 94.6497 73.697 95.4717C73.3786 95.5935 69.6218 97.3637 71.1977 96.0894C74.9169 93.0822 78.7694 90.5713 81.3615 86.4336C81.923 85.5372 81.105 85.732 80.4907 86.008C78.6496 86.8352 76.9163 87.9829 75.1642 88.9796C74.4016 89.4135 72.4338 90.9758 72.8277 90.1918C74.1943 87.4717 77.0181 85.1576 78.924 82.7914C78.9807 82.721 81.1254 79.8595 80.6759 79.909C78.3169 80.1685 75.9856 83.6111 74.7711 85.2562C72.5871 88.2145 70.9943 91.5005 69.076 94.6212C68.7695 95.1198 68.3373 95.9773 67.7961 96.3287C67.4613 96.5462 68.0512 95.572 68.1907 95.1979C69.1922 92.5134 69.2901 89.8394 69.3334 87.0046C69.3559 85.5361 68.7031 86.8024 68.3333 87.4566C67.9193 88.189 66.7906 90.4464 67.1438 89.6828C68.4149 86.9356 69.3826 83.9173 69.7235 80.906C70.0203 78.2844 69.9895 74.4689 68.4622 72.1359C67.1598 70.1464 65.0521 79.1465 65.0108 79.4059C64.4428 82.9704 64.779 93.8144 64.4525 90.2198C64.4148 89.8047 64.9615 90.8833 65.1676 91.2456C65.4264 91.7006 67.097 93.902 66.8068 94.4356C66.4508 95.0904 61.6042 93.7699 60.7403 93.7934C60.5557 93.7984 59.4571 93.4888 59.5345 93.8069C59.8796 95.2234 63.2025 94.3846 64.0843 93.9669C65.1833 93.4464 64.7497 93.3772 63.3343 93.034C61.8071 92.6637 58.1786 91.3769 56.6704 92.3955C55.9996 92.8485 57.8522 93.1983 57.8745 93.2016C59.6949 93.4699 61.5411 93.2772 63.3699 93.3793C64.4055 93.4371 65.3442 93.6458 66.316 93.9839C67.4738 94.3866 64.6732 94.3422 64.1526 94.4982C63.4536 94.7078 55.911 97.5478 56.7058 98.5737C57.2164 99.2329 59.8012 98.3167 60.3504 98.1962C62.7498 97.6697 65.1251 96.9354 67.5592 96.5804C70.9284 96.0891 67.697 98.4337 66.7734 99.5419C66.268 100.148 65.7426 100.814 65.3181 101.481C64.6919 102.465 65.6623 102.046 66.109 101.586C66.7743 100.902 66.9766 99.7351 67.6678 99.1355C68.014 98.8351 67.399 100.012 67.2775 100.454C66.8468 102.021 66.6128 103.639 66.6535 105.268C66.739 108.686 68.0685 112.089 69.4777 115.166C70.58 117.573 71.7133 114.73 72.3462 113.476C73.8563 110.483 75.0733 106.315 73.1128 103.362C72.556 102.523 71.4288 102.162 71.1583 103.421C71.0422 103.962 70.8142 104.847 70.9685 105.4C71.1085 105.902 70.8425 104.366 70.7603 103.852" stroke="#C9385C" stroke-width="2" stroke-linecap="round"/>
<path d="M71.1357 221.702C70.9329 224.278 70.442 226.743 69.9111 229.269C69.8764 229.435 69.638 232.185 69.262 232.266C68.682 232.393 68.6747 223.146 69.9948 221.886C70.8172 221.101 70.269 222.59 70.1772 222.904C69.5861 224.933 69.0626 227.061 68.8563 229.171C68.7733 230.02 70.0321 227.923 70.7174 227.415C70.8443 227.321 71.3294 227.17 70.9003 227.447C69.9909 228.036 68.8625 228.285 67.7941 228.339C66.0069 228.428 64.9338 227.089 67.1366 228.001C68.2828 228.475 71.1715 230.8 70.3586 229.863C69.6249 229.018 68.2386 228.535 67.2605 228.026C66.5483 227.656 67.9747 227.54 68.1232 227.522C69.4019 227.368 70.7132 227.132 72.0013 227.314C72.3137 227.358 72.6949 227.637 72.14 227.317C70.8284 226.56 69.5271 225.41 68.3978 224.396C67.486 223.577 68.1719 224.309 68.584 224.988C69.6738 226.782 70.9581 228.438 72.4804 229.888C72.8154 230.207 75.93 233.246 76.646 232.062C77.2582 231.05 75.7752 228.906 75.1898 228.155C74.1041 226.762 72.2467 226.088 70.4982 226.308C69.3738 226.449 68.5828 226.769 69.2527 227.919C70.2271 229.593 72.878 230.801 74.2592 228.685C74.987 227.57 73.6346 226.393 72.7862 225.855C71.3506 224.944 69.4155 224.714 67.7825 225.143C66.1705 225.566 67.4181 227.234 68.3439 227.862C70.3522 229.223 70.6901 224.831 68.7841 224.545C67.143 224.299 66.0558 225.012 66.6138 226.697C66.8763 227.489 66.8278 227.635 67.5661 227.168C68.8827 226.336 70.3254 224.948 70.0349 223.232C69.8128 221.92 69.1423 220.336 67.8756 219.725C67.6132 219.598 65.5564 219.127 65.4468 219.738C65.3854 220.08 65.9985 220.9 66.117 221.108C66.6661 222.073 67.2151 223.038 67.7641 224.003C68.1379 224.661 69.2186 227.574 69.995 227.853C70.3663 227.986 69.5207 225.16 68.937 224.814C68.5142 224.564 67.8036 225.523 67.7119 225.812C67.2613 227.236 68.4752 229.382 69.2832 230.475C70.7943 232.52 75.3604 231.474 74.86 228.562C74.7031 227.649 74.4188 226.591 74.1263 225.708C73.8923 225.002 73.0538 225.784 72.6767 225.999C71.097 226.898 69.188 227.68 67.8578 228.932C67.4035 229.359 69.3446 228.141 69.5151 228.044C71.1627 227.107 72.8102 226.169 74.4577 225.232C75.0506 224.895 75.6434 224.558 76.2362 224.22C77.2227 223.659 74.5712 223.666 74.3544 223.703C72.4719 224.031 70.3718 224.448 68.9263 225.806C68.6474 226.068 67.4887 227.07 67.5978 227.561C67.6862 227.958 68.0357 228.337 68.208 228.705C68.7786 229.926 67.8102 231.253 67.1402 232.242C66.8646 232.648 66.5342 232.974 66.0937 233.193C65.6012 233.438 66.8677 230.797 66.953 230.637C67.3028 229.983 67.9076 227.567 68.9725 227.86" stroke="#66C938" stroke-width="2" stroke-linecap="round"/>
<path d="M71.977 227.138C71.9146 227.048 71.6193 226.823 71.8146 226.837C72.8326 226.909 73.8477 226.899 74.8657 226.81C75.2607 226.776 79.1603 226.599 79.2136 225.849C79.2277 225.65 78.8975 225.244 78.7849 225.11C78.1559 224.361 77.1345 224.562 76.299 224.765C74.9862 225.083 73.7809 225.654 72.525 226.134C72.339 226.205 70.1438 227.24 71.0646 226.495C73.2379 224.738 75.4891 223.271 77.0037 220.853C77.3318 220.329 76.8539 220.443 76.4949 220.604C75.4191 221.087 74.4062 221.758 73.3824 222.341C72.9368 222.594 71.7869 223.507 72.0171 223.049C72.8157 221.459 74.4657 220.107 75.5794 218.724C75.6125 218.683 76.8658 217.011 76.6031 217.04C75.2247 217.192 73.8624 219.203 73.1527 220.165C71.8765 221.893 70.9458 223.814 69.8248 225.637C69.6457 225.928 69.3932 226.43 69.0769 226.635C68.8813 226.762 69.226 226.193 69.3075 225.974C69.8927 224.405 69.9499 222.843 69.9753 221.186C69.9884 220.328 69.607 221.068 69.3909 221.451C69.1489 221.879 68.4894 223.198 68.6958 222.751C69.4385 221.146 70.004 219.382 70.2032 217.623C70.3766 216.091 70.3586 213.861 69.4662 212.498C68.7051 211.336 67.4735 216.595 67.4494 216.746C67.1174 218.829 67.3139 225.166 67.1231 223.065C67.1011 222.823 67.4206 223.453 67.541 223.665C67.6922 223.93 68.6684 225.217 68.4989 225.529C68.2908 225.911 65.4587 225.14 64.9539 225.153C64.8461 225.156 64.2041 224.975 64.2494 225.161C64.451 225.989 66.3927 225.499 66.908 225.255C67.5502 224.951 67.2968 224.91 66.4698 224.71C65.5773 224.493 63.457 223.741 62.5758 224.337C62.1838 224.601 63.2663 224.806 63.2794 224.808C64.3431 224.964 65.4219 224.852 66.4905 224.911C67.0957 224.945 67.6442 225.067 68.2121 225.265C68.8886 225.5 67.2521 225.474 66.9479 225.565C66.5394 225.688 62.132 227.347 62.5964 227.947C62.8948 228.332 64.4052 227.797 64.7261 227.726C66.1282 227.418 67.5162 226.989 68.9385 226.782C70.9073 226.495 69.019 227.865 68.4793 228.513C68.184 228.867 67.877 229.256 67.6289 229.645C67.2631 230.22 67.8301 229.976 68.0911 229.707C68.4798 229.307 68.5981 228.625 69.0019 228.275C69.2042 228.099 68.8449 228.787 68.7739 229.045C68.5222 229.961 68.3855 230.906 68.4093 231.858C68.4593 233.856 69.2361 235.844 70.0595 237.642C70.7037 239.049 71.3659 237.388 71.7357 236.655C72.6181 234.906 73.3293 232.47 72.1837 230.745C71.8583 230.255 71.1997 230.044 71.0416 230.779C70.9737 231.095 70.8405 231.613 70.9307 231.936C71.0125 232.229 70.8571 231.332 70.8091 231.031" stroke="#66C938" stroke-width="2" stroke-linecap="round"/>
<path d="M29.5625 130.751C32.5085 132.748 35.1261 135.015 37.7888 137.371C37.9633 137.526 41.0933 139.684 40.9351 140.19C40.6913 140.97 29.6151 134.681 29.0053 132.242C28.6255 130.723 30.0346 132.393 30.3491 132.717C32.3751 134.807 34.5673 136.884 36.9531 138.568C37.9131 139.245 36.2587 136.309 36.1173 135.143C36.0912 134.927 36.241 134.243 36.2812 134.946C36.3663 136.436 35.896 137.956 35.2324 139.272C34.1224 141.473 31.7879 141.846 34.3803 139.829C35.7291 138.78 40.4804 136.905 38.8048 137.24C37.2926 137.543 35.7698 138.873 34.495 139.698C33.5667 140.299 34.3989 138.512 34.4786 138.322C35.1656 136.686 35.7766 134.956 36.8711 133.537C37.1366 133.193 37.7307 132.927 36.9695 133.373C35.1699 134.428 32.9064 135.202 30.9226 135.864C29.3209 136.398 30.665 136.075 31.7584 136.044C34.649 135.961 37.5069 135.552 40.2797 134.717C40.8899 134.533 46.6499 132.874 45.7202 131.21C44.9254 129.788 41.3481 130.103 40.0502 130.292C37.6426 130.643 35.5706 132.408 34.6425 134.651C34.0456 136.094 33.89 137.259 35.724 137.24C38.3917 137.214 41.6434 134.862 40.0502 131.767C39.2109 130.136 36.8807 130.954 35.6585 131.603C33.5904 132.702 31.9971 134.862 31.3978 137.109C30.8063 139.327 33.6538 138.97 35.0358 138.289C38.0338 136.812 33.0053 133.416 31.3651 135.503C29.9528 137.301 30.0653 139.088 32.463 139.567C33.5905 139.793 33.7316 139.95 33.6757 138.748C33.576 136.605 32.8965 133.932 30.644 133.111C28.9217 132.483 26.5692 132.207 24.9741 133.307C24.6437 133.535 22.6789 135.677 23.3354 136.224C23.7036 136.531 25.1026 136.355 25.4329 136.355C26.9624 136.355 28.4919 136.355 30.0213 136.355C31.0628 136.355 35.2872 137.046 36.1501 136.306C36.5627 135.953 32.6023 135.04 31.7911 135.503C31.2034 135.839 31.8672 137.343 32.1517 137.65C33.5488 139.159 36.9451 139.167 38.8048 138.945C42.283 138.528 44.1401 132.348 40.3124 130.964C39.1123 130.53 37.6526 130.15 36.3959 129.899C35.3906 129.698 35.7568 131.235 35.7568 131.833C35.7568 134.336 35.3934 137.155 35.9862 139.6C36.1887 140.435 36.0518 137.281 36.0518 137.011C36.0518 134.4 36.0518 131.789 36.0518 129.178C36.0518 128.238 36.0518 127.299 36.0518 126.359C36.0518 124.796 34.2534 127.975 34.1509 128.26C33.261 130.737 32.33 133.536 32.971 136.191C33.0947 136.704 33.5049 138.773 34.1673 138.977C34.7033 139.142 35.395 138.982 35.9535 139.026C37.8032 139.174 38.7325 141.238 39.4603 142.714C39.7597 143.321 39.924 143.938 39.8864 144.614C39.8443 145.371 37.5449 142.056 37.4119 141.845C36.8665 140.98 34.3862 138.611 35.4618 137.535" stroke="#C9385C" stroke-width="2" stroke-linecap="round"/>
<path d="M36.6438 133.446C36.4938 133.46 36.0237 133.66 36.1733 133.436C36.9531 132.266 37.6319 131.043 38.2189 129.764C38.4466 129.268 40.8918 124.478 40.0292 123.903C39.8008 123.751 39.0903 123.87 38.853 123.914C37.5274 124.156 37.0723 125.516 36.7461 126.655C36.2335 128.444 36.0955 130.275 35.8153 132.106C35.7738 132.377 35.5171 135.71 35.2528 134.101C34.629 130.302 34.4056 126.607 32.5424 123.147C32.1387 122.397 31.9494 123.047 31.898 123.586C31.744 125.204 31.8571 126.873 31.8571 128.496C31.8571 129.202 32.167 131.201 31.7753 130.613C30.4161 128.574 29.9209 125.677 29.024 123.402C28.9973 123.335 27.8489 120.695 27.7046 121.029C26.9473 122.783 28.4279 125.784 29.0956 127.289C30.2961 129.994 31.9612 132.417 33.3811 135.001C33.6079 135.414 34.0358 136.057 34.0663 136.576C34.0852 136.897 33.6384 136.096 33.4322 135.85C31.9526 134.081 30.1207 132.948 28.1546 131.789C27.1361 131.189 27.7623 132.15 28.0728 132.669C28.4204 133.25 29.5506 134.938 29.1569 134.387C27.7407 132.404 26.0141 130.526 24.0429 129.089C22.3269 127.838 19.6451 126.341 17.405 126.481C15.4947 126.6 20.9527 131.657 21.1178 131.789C23.3855 133.605 31.1063 137.686 28.4614 136.484C28.156 136.345 29.1282 136.392 29.4638 136.392C29.8851 136.392 32.0902 136.099 32.348 136.514C32.6644 137.024 29.8116 139.89 29.4842 140.503C29.4143 140.634 28.7603 141.28 29.0137 141.352C30.1422 141.675 30.8778 139.016 30.9366 138.233C31.0098 137.257 30.7888 137.533 29.9854 138.386C29.1184 139.307 26.774 141.334 26.8863 142.794C26.9363 143.444 27.9184 142.287 27.9296 142.273C28.8418 141.106 29.4418 139.738 30.2411 138.499C30.6937 137.797 31.2133 137.223 31.8366 136.678C32.5792 136.028 31.4335 137.97 31.3355 138.396C31.2039 138.969 30.1888 145.376 31.223 145.229C31.8874 145.134 32.2751 142.961 32.4094 142.528C32.9961 140.64 33.4277 138.686 34.1482 136.842C35.1453 134.289 35.4996 137.483 35.9074 138.57C36.1305 139.165 36.3868 139.798 36.6847 140.36C37.1239 141.19 37.2172 140.344 37.0733 139.849C36.8591 139.111 36.1234 138.505 35.979 137.783C35.9066 137.421 36.4852 138.32 36.7461 138.58C37.6713 139.506 38.7098 140.313 39.8656 140.933C42.291 142.234 45.2013 142.658 47.915 142.897C50.0377 143.083 48.4998 141.159 47.8741 140.217C46.3812 137.969 43.9496 135.459 41.1032 135.655C40.2948 135.711 39.5936 136.356 40.3667 137.046C40.6988 137.343 41.2276 137.855 41.6759 137.967C42.0825 138.068 40.9024 137.643 40.5099 137.496" stroke="#C9385C" stroke-width="2" stroke-linecap="round"/>
<path d="M112.437 130.751C109.491 132.748 106.874 135.015 104.211 137.371C104.037 137.526 100.907 139.684 101.065 140.19C101.309 140.97 112.385 134.681 112.995 132.242C113.375 130.723 111.965 132.393 111.651 132.717C109.625 134.807 107.433 136.884 105.047 138.568C104.087 139.245 105.741 136.309 105.883 135.143C105.909 134.927 105.759 134.243 105.719 134.946C105.634 136.436 106.104 137.956 106.768 139.272C107.878 141.473 110.212 141.846 107.62 139.829C106.271 138.78 101.52 136.905 103.195 137.24C104.707 137.543 106.23 138.873 107.505 139.698C108.433 140.299 107.601 138.512 107.521 138.322C106.834 136.686 106.223 134.956 105.129 133.537C104.863 133.193 104.269 132.927 105.031 133.373C106.83 134.428 109.094 135.202 111.077 135.864C112.679 136.398 111.335 136.075 110.242 136.044C107.351 135.961 104.493 135.552 101.72 134.717C101.11 134.533 95.3501 132.874 96.2798 131.21C97.0746 129.788 100.652 130.103 101.95 130.292C104.357 130.643 106.429 132.408 107.357 134.651C107.954 136.094 108.11 137.259 106.276 137.24C103.608 137.214 100.357 134.862 101.95 131.767C102.789 130.136 105.119 130.954 106.341 131.603C108.41 132.702 110.003 134.862 110.602 137.109C111.194 139.327 108.346 138.97 106.964 138.289C103.966 136.812 108.995 133.416 110.635 135.503C112.047 137.301 111.935 139.088 109.537 139.567C108.409 139.793 108.268 139.95 108.324 138.748C108.424 136.605 109.104 133.932 111.356 133.111C113.078 132.483 115.431 132.207 117.026 133.307C117.356 133.535 119.321 135.677 118.665 136.224C118.296 136.531 116.897 136.355 116.567 136.355C115.038 136.355 113.508 136.355 111.979 136.355C110.937 136.355 106.713 137.046 105.85 136.306C105.437 135.953 109.398 135.04 110.209 135.503C110.797 135.839 110.133 137.343 109.848 137.65C108.451 139.159 105.055 139.167 103.195 138.945C99.717 138.528 97.8598 132.348 101.688 130.964C102.888 130.53 104.347 130.15 105.604 129.899C106.609 129.698 106.243 131.235 106.243 131.833C106.243 134.336 106.607 137.155 106.014 139.6C105.811 140.435 105.948 137.281 105.948 137.011C105.948 134.4 105.948 131.789 105.948 129.178C105.948 128.238 105.948 127.299 105.948 126.359C105.948 124.796 107.747 127.975 107.849 128.26C108.739 130.737 109.67 133.536 109.029 136.191C108.905 136.704 108.495 138.773 107.833 138.977C107.297 139.142 106.605 138.982 106.047 139.026C104.197 139.174 103.267 141.238 102.54 142.714C102.24 143.321 102.076 143.938 102.114 144.614C102.156 145.371 104.455 142.056 104.588 141.845C105.134 140.98 107.614 138.611 106.538 137.535" stroke="#C9385C" stroke-width="2" stroke-linecap="round"/>
<path d="M105.356 133.446C105.506 133.46 105.976 133.66 105.827 133.436C105.047 132.266 104.368 131.043 103.781 129.764C103.553 129.268 101.108 124.478 101.971 123.903C102.199 123.751 102.91 123.87 103.147 123.914C104.473 124.156 104.928 125.516 105.254 126.655C105.766 128.444 105.904 130.275 106.185 132.106C106.226 132.377 106.483 135.71 106.747 134.101C107.371 130.302 107.594 126.607 109.458 123.147C109.861 122.397 110.051 123.047 110.102 123.586C110.256 125.204 110.143 126.873 110.143 128.496C110.143 129.202 109.833 131.201 110.225 130.613C111.584 128.574 112.079 125.677 112.976 123.402C113.003 123.335 114.151 120.695 114.295 121.029C115.053 122.783 113.572 125.784 112.904 127.289C111.704 129.994 110.039 132.417 108.619 135.001C108.392 135.414 107.964 136.057 107.934 136.576C107.915 136.897 108.362 136.096 108.568 135.85C110.047 134.081 111.879 132.948 113.845 131.789C114.864 131.189 114.238 132.15 113.927 132.669C113.58 133.25 112.449 134.938 112.843 134.387C114.259 132.404 115.986 130.526 117.957 129.089C119.673 127.838 122.355 126.341 124.595 126.481C126.505 126.6 121.047 131.657 120.882 131.789C118.614 133.605 110.894 137.686 113.539 136.484C113.844 136.345 112.872 136.392 112.536 136.392C112.115 136.392 109.91 136.099 109.652 136.514C109.336 137.024 112.188 139.89 112.516 140.503C112.586 140.634 113.24 141.28 112.986 141.352C111.858 141.675 111.122 139.016 111.063 138.233C110.99 137.257 111.211 137.533 112.015 138.386C112.882 139.307 115.226 141.334 115.114 142.794C115.064 143.444 114.082 142.287 114.07 142.273C113.158 141.106 112.558 139.738 111.759 138.499C111.306 137.797 110.787 137.223 110.163 136.678C109.421 136.028 110.567 137.97 110.665 138.396C110.796 138.969 111.811 145.376 110.777 145.229C110.113 145.134 109.725 142.961 109.591 142.528C109.004 140.64 108.572 138.686 107.852 136.842C106.855 134.289 106.5 137.483 106.093 138.57C105.87 139.165 105.613 139.798 105.315 140.36C104.876 141.19 104.783 140.344 104.927 139.849C105.141 139.111 105.877 138.505 106.021 137.783C106.093 137.421 105.515 138.32 105.254 138.58C104.329 139.506 103.29 140.313 102.134 140.933C99.709 142.234 96.7987 142.658 94.085 142.897C91.9623 143.083 93.5002 141.159 94.1259 140.217C95.6188 137.969 98.0504 135.459 100.897 135.655C101.705 135.711 102.406 136.356 101.633 137.046C101.301 137.343 100.772 137.855 100.324 137.967C99.9175 138.068 101.098 137.643 101.49 137.496" stroke="#C9385C" stroke-width="2" stroke-linecap="round"/>
</svg>
